<svg version="1.1" id="Layer_1" xmlns="http://www.w3.org/2000/svg" xmlns:xlink="http://www.w3.org/1999/xlink" x="0px" y="0px"
	 width="100%" viewBox="0 0 1000 1000" enable-background="new 0 0 1000 1000" xml:space="preserve">
<path fill="#ED8936" opacity="1.000000" stroke="none" 
	d="
M242.000000,659.000000 
	C242.000000,510.199097 242.000000,361.898193 242.000000,211.907654 
	C244.580673,213.409393 246.473114,214.100342 247.827499,215.366745 
	C255.419540,222.465393 262.939087,229.644165 270.376770,236.904785 
	C287.521820,253.641769 304.648895,270.397675 321.699493,287.230713 
	C333.740814,299.118378 345.590088,311.200409 357.621338,323.098358 
	C382.248749,347.452972 406.925629,371.757629 431.611786,396.052704 
	C448.223206,412.401062 464.858734,428.725128 481.541992,445.000092 
	C486.224823,449.568329 491.114868,453.924133 496.347687,458.783997 
	C498.828430,456.062866 500.751953,453.754547 502.878021,451.651001 
	C530.343323,424.476532 557.820190,397.313629 585.330322,370.184540 
	C604.952698,350.833862 624.629150,331.538116 644.282166,312.218567 
	C663.993164,292.842041 683.685608,273.446533 703.423340,254.097321 
	C716.796387,240.987610 730.220276,227.929688 743.663818,214.892242 
	C744.953857,213.641205 746.544678,212.700317 749.000000,210.864716 
	C749.000000,213.915237 749.000000,215.527328 749.000000,217.139404 
	C749.000000,240.637466 748.863892,264.137024 749.120605,287.632294 
	C749.169067,292.066895 747.420593,295.101257 744.594238,297.870667 
	C731.770569,310.435883 718.848694,322.900879 706.038635,335.479858 
	C683.952942,357.167114 661.990112,378.979797 639.848328,400.609375 
	C624.871643,415.239655 609.536865,429.504425 594.612549,444.187073 
	C573.408997,465.047363 552.483459,486.189911 531.343750,507.115540 
	C520.464661,517.884460 509.312378,528.377380 498.437958,539.150879 
	C495.974182,541.591736 494.491241,541.095520 492.333710,538.899963 
	C482.989685,529.391113 473.563812,519.961182 464.075623,510.595764 
	C443.268707,490.058136 422.410919,469.572052 401.564545,449.074371 
	C382.578766,430.406189 363.591980,411.738953 344.584351,393.093018 
	C328.826202,377.634705 313.039185,362.205872 297.254272,346.774902 
	C296.573029,346.108948 295.784760,345.552490 293.965698,344.055969 
	C292.018188,355.711884 293.279907,366.518982 293.051941,377.223053 
	C292.817780,388.217163 293.000000,399.220154 293.000000,410.219238 
	C293.000000,421.218323 293.000000,432.217438 293.000000,443.216522 
	C293.000000,454.215607 293.000000,465.214722 293.000000,476.213806 
	C293.000000,487.212891 293.000000,498.212006 293.000000,509.211090 
	C293.000000,520.210205 293.000000,531.209290 293.000000,542.208374 
	C293.000000,553.207458 293.000000,564.206543 293.000000,575.205627 
	C293.000000,586.204712 293.000000,597.203857 293.000000,608.202942 
	C293.000000,619.202026 293.000000,630.201111 293.000000,641.200195 
	C293.000000,652.199280 293.000000,663.198425 293.000000,674.197510 
	C293.000000,685.192932 293.000000,696.188354 293.000000,707.595398 
	C291.625031,707.738464 290.370636,707.979980 289.115784,707.982422 
	C275.117004,708.009521 261.116486,707.881409 247.120346,708.076294 
	C243.220581,708.130615 241.859436,707.009583 241.917786,702.977783 
	C242.127548,688.487854 242.000046,673.992981 242.000000,659.000000 
z"/>
<path fill="#ED8936" opacity="1.000000" stroke="none" 
	d="
M378.166473,593.020935 
	C368.325653,583.395508 358.428131,573.826660 348.709198,564.079773 
	C347.355713,562.722351 346.126373,560.493164 346.114227,558.659119 
	C345.947662,533.535950 346.003357,508.411316 346.018402,483.287048 
	C346.018799,482.637329 346.177429,481.987671 346.445404,479.934998 
	C348.514069,481.550446 349.938385,482.662750 351.784363,484.145508 
	C352.368347,484.733826 352.577545,484.888123 352.833527,484.978973 
	C353.166229,485.436096 353.498962,485.893250 353.974976,486.979492 
	C355.116882,488.058258 356.115479,488.507904 357.114075,488.957550 
	C370.206696,501.935669 383.275024,514.938477 396.397308,527.886475 
	C419.382477,550.566162 442.400757,573.212402 465.805573,596.194336 
	C466.368439,596.733704 466.577606,596.888062 466.833557,596.979065 
	C467.166260,597.436157 467.498962,597.893250 467.974976,598.979492 
	C469.116882,600.058350 470.115540,600.507996 471.114166,600.957703 
	C478.872711,608.593079 486.631226,616.228455 494.743103,624.357178 
	C496.067841,625.509766 497.078766,626.773132 498.002899,626.712463 
	C500.555969,626.544983 508.805878,615.800964 508.957520,612.885925 
	C523.399475,598.334412 537.841492,583.782898 553.000732,569.106934 
	C555.288208,568.542542 556.858398,568.102661 558.428528,567.662781 
	C558.000793,566.972595 557.573059,566.282410 557.145264,565.592285 
	C557.145264,565.592285 557.133423,565.103394 557.714478,565.013367 
	C562.770813,565.337769 564.309204,562.998047 563.957642,558.885864 
	C580.732910,542.000977 597.508179,525.116150 614.996216,508.106812 
	C621.266357,507.698334 622.650940,506.345551 622.943420,500.913788 
	C622.943420,500.913788 622.990662,500.990967 623.346985,500.983887 
	C628.186035,500.728210 630.018494,498.141968 629.957642,493.885864 
	C643.066284,480.667694 656.174927,467.449493 669.999695,454.106812 
	C675.685730,454.225189 677.974548,451.731995 677.957642,446.885864 
	C694.399597,430.334320 710.841553,413.782806 727.995056,397.106750 
	C734.306824,396.711792 739.666077,391.426270 739.957642,385.885895 
	C740.424927,385.311249 740.892212,384.736603 742.022705,384.071594 
	C744.735046,383.654327 746.784302,383.327423 748.833496,383.000549 
	C748.888794,383.995880 748.992615,384.991241 748.992615,385.986572 
	C748.989990,492.688354 748.979553,599.390137 748.726746,706.648926 
	C748.266174,707.368347 748.111816,707.577515 748.020874,707.833496 
	C732.693237,707.888550 717.364563,707.856995 702.038757,708.056763 
	C697.986816,708.109497 697.969116,705.811462 697.975403,702.898132 
	C698.021240,681.568115 697.996704,660.237915 698.000732,638.907776 
	C698.008423,597.914001 698.020203,556.920227 698.378479,515.418274 
	C699.020081,514.592346 699.313599,514.274597 699.607056,513.956848 
	C699.126892,513.638489 698.646667,513.320068 698.166504,513.001709 
	C696.668152,509.969452 695.456848,512.047668 694.253906,513.248901 
	C684.110596,523.377258 674.005798,533.544495 663.822754,543.632690 
	C661.738098,545.697876 659.373657,547.480713 656.811035,549.799805 
	C656.266174,550.368347 656.111816,550.577515 656.020874,550.833496 
	C644.602173,562.134155 633.227295,573.479553 621.749451,584.719849 
	C613.951416,592.356445 606.008850,599.845581 597.807373,607.803284 
	C597.266174,608.368347 597.111816,608.577515 597.020874,608.833496 
	C590.268250,615.467957 583.531433,622.118591 576.760254,628.734070 
	C551.353638,653.556458 525.944275,678.376099 500.514862,703.175232 
	C495.553650,708.013428 494.311279,707.793274 488.647217,702.118713 
	C470.656708,684.094727 452.616089,666.120728 434.194427,647.805664 
	C433.631561,647.266296 433.422394,647.111938 433.166473,647.020935 
	C422.376587,636.446228 411.563080,625.895508 400.805145,615.288391 
	C393.693756,608.276611 386.662170,601.183838 379.194427,593.805664 
	C378.631561,593.266296 378.422394,593.111938 378.166473,593.020935 
z"/>
<path fill="#ED8936" opacity="1.000000" stroke="none" 
	d="
M508.640747,613.036133 
	C508.805878,615.800964 500.555969,626.544983 498.002899,626.712463 
	C497.078766,626.773132 496.067841,625.509766 495.048767,624.508545 
	C498.680786,621.075562 502.355072,617.978088 506.045013,614.899292 
	C506.773773,614.291321 507.562744,613.755493 508.640747,613.036133 
z"/>
<path fill="#ED8936" opacity="1.000000" stroke="none" 
	d="
M739.640808,386.036072 
	C739.666077,391.426270 734.306824,396.711792 728.296143,396.969910 
	C731.698486,393.367157 735.511230,389.776703 739.640808,386.036072 
z"/>
<path fill="#ED8936" opacity="1.000000" stroke="none" 
	d="
M677.642761,447.034424 
	C677.974548,451.731995 675.685730,454.225189 670.300781,453.969971 
	C672.366516,451.699432 674.847168,449.441193 677.642761,447.034424 
z"/>
<path fill="#ED8936" opacity="1.000000" stroke="none" 
	d="
M622.627686,501.057068 
	C622.650940,506.345551 621.266357,507.698334 615.297363,507.969971 
	C617.361145,505.705200 619.836548,503.452759 622.627686,501.057068 
z"/>
<path fill="#ED8936" opacity="1.000000" stroke="none" 
	d="
M629.644470,494.033020 
	C630.018494,498.141968 628.186035,500.728210 623.308411,500.960205 
	C625.052795,498.689148 627.192017,496.434662 629.644470,494.033020 
z"/>
<path fill="#ED8936" opacity="1.000000" stroke="none" 
	d="
M748.899536,382.622192 
	C746.784302,383.327423 744.735046,383.654327 742.285828,383.969421 
	C742.734863,382.980591 743.509277,381.922394 744.455566,381.050995 
	C745.281616,380.290344 746.301514,379.740143 747.235718,379.096924 
	C747.812317,380.145905 748.388916,381.194885 748.899536,382.622192 
z"/>
<path fill="#ED8936" opacity="1.000000" stroke="none" 
	d="
M563.640869,559.036072 
	C564.309204,562.998047 562.770813,565.337769 557.856079,564.813965 
	C559.385742,562.865112 561.354919,561.025696 563.640869,559.036072 
z"/>
<path fill="#ED8936" opacity="1.000000" stroke="none" 
	d="
M556.878784,565.736694 
	C557.573059,566.282410 558.000793,566.972595 558.428528,567.662781 
	C556.858398,568.102661 555.288208,568.542542 553.301880,568.970093 
	C554.127869,567.932190 555.370056,566.906616 556.878784,565.736694 
z"/>
<path fill="#ED8936" opacity="1.000000" stroke="none" 
	d="
M356.974823,488.658691 
	C356.115479,488.507904 355.116882,488.058258 354.079590,487.246338 
	C354.972443,487.376007 355.904022,487.867950 356.974823,488.658691 
z"/>
<path fill="#ED8936" opacity="1.000000" stroke="none" 
	d="
M470.974915,600.658813 
	C470.115540,600.507996 469.116882,600.058350 468.079559,599.246338 
	C468.972473,599.376038 469.904053,599.867981 470.974915,600.658813 
z"/>
<path fill="#ED8936" opacity="1.000000" stroke="none" 
	d="
M698.101624,513.332275 
	C698.646667,513.320068 699.126892,513.638489 699.607056,513.956848 
	C699.313599,514.274597 699.020081,514.592346 698.446533,514.953979 
	C698.123230,514.552917 698.080017,514.107910 698.101624,513.332275 
z"/>
<path fill="#ED8936" opacity="1.000000" stroke="none" 
	d="
M378.148529,593.268616 
	C378.422394,593.111938 378.631561,593.266296 378.885376,593.658691 
	C378.976746,593.833496 378.481293,593.867920 378.481293,593.867920 
	C378.481293,593.867920 378.130585,593.516296 378.148529,593.268616 
z"/>
<path fill="#ED8936" opacity="1.000000" stroke="none" 
	d="
M466.851471,596.731384 
	C466.577606,596.888062 466.368439,596.733704 466.114624,596.341309 
	C466.401794,596.014893 466.683868,596.120605 466.851471,596.731384 
z"/>
<path fill="#ED8936" opacity="1.000000" stroke="none" 
	d="
M656.268555,550.851440 
	C656.111816,550.577515 656.266174,550.368347 656.658691,550.114502 
	C656.985168,550.401733 656.879395,550.683838 656.268555,550.851440 
z"/>
<path fill="#ED8936" opacity="1.000000" stroke="none" 
	d="
M597.268555,608.851440 
	C597.111816,608.577515 597.266174,608.368347 597.658691,608.114502 
	C597.985168,608.401733 597.879395,608.683838 597.268555,608.851440 
z"/>
<path fill="#ED8936" opacity="1.000000" stroke="none" 
	d="
M352.851440,484.731293 
	C352.577545,484.888123 352.368347,484.733826 352.114624,484.341248 
	C352.401764,484.014862 352.683807,484.120575 352.851440,484.731293 
z"/>
<path fill="#ED8936" opacity="1.000000" stroke="none" 
	d="
M433.148529,647.268616 
	C433.422394,647.111938 433.631561,647.266296 433.885376,647.658691 
	C433.976746,647.833496 433.481293,647.867920 433.481293,647.867920 
	C433.481293,647.867920 433.130585,647.516296 433.148529,647.268616 
z"/>
<path fill="#ED8936" opacity="1.000000" stroke="none" 
	d="
M748.268555,707.851440 
	C748.111816,707.577515 748.266174,707.368347 748.658691,707.114502 
	C748.985168,707.401733 748.879395,707.683838 748.268555,707.851440 
z"/>
</svg>