<?xml version="1.0" encoding="UTF-8" standalone="no"?>
<!-- Created with Inkscape (http://www.inkscape.org/) -->

<svg
   version="1.1"
   id="svg2"
   width="2800"
   height="2800"
   viewBox="0 0 2800 2800"
   sodipodi:docname="team.eps"
   xmlns:inkscape="http://www.inkscape.org/namespaces/inkscape"
   xmlns:sodipodi="http://sodipodi.sourceforge.net/DTD/sodipodi-0.dtd"
   xmlns="http://www.w3.org/2000/svg"
   xmlns:svg="http://www.w3.org/2000/svg">
  <defs
     id="defs6" />
  <sodipodi:namedview
     id="namedview4"
     pagecolor="#ffffff"
     bordercolor="#000000"
     borderopacity="0.25"
     inkscape:showpageshadow="2"
     inkscape:pageopacity="0.0"
     inkscape:pagecheckerboard="0"
     inkscape:deskcolor="#d1d1d1" />
  <g
     id="g8"
     inkscape:groupmode="layer"
     inkscape:label="ink_ext_XXXXXX"
     transform="matrix(1.3333333,0,0,-1.3333333,0,2800)">
    <g
       id="g10"
       transform="scale(0.1)">
      <path
         d="M 21000,0 H 0 V 21000 H 21000 V 0"
         style="fill:#ffffff;fill-opacity:1;fill-rule:nonzero;stroke:none"
         id="path12" />
      <path
         d="m 18473.9,2053.7 c 238.3,317.7 427.2,675.4 558.7,1048.7 331.2,939.6 532.4,2118.6 378.1,3102.8 -177.8,1133.9 -798.6,2145.9 -1693.6,2864.4 -635.2,509.8 -1464.5,749.1 -2278.8,736.4 -814.4,-12.7 -1613.6,-265.9 -2330.1,-653.2 C 12115.3,8616.2 11261,7822.8 10206.6,7420.2 9271.2,7063 8245.09,7039.7 7243.95,7057 6242.8,7074.4 5228.78,7126.8 4251.58,6908.5 3274.38,6690.2 2316.4,6155.7 1841.08,5274.4 1469.15,4584.8 1435.97,3722.3 1753.84,3006.2 c 164.42,-370.4 421.04,-697.3 735.64,-952.5"
         style="fill:#f8f8f8;fill-opacity:1;fill-rule:nonzero;stroke:none"
         id="path14" />
      <path
         d="m 3025.45,16156 c 0,0 103.06,790.2 253.82,805.9 150.77,15.7 400.96,-757.7 400.96,-757.7 0,0 710.6,102.8 833.82,-7.8 123.22,-110.6 -548.62,-615.8 -548.62,-615.8 0,0 338.74,-725.5 234.57,-811.4 -104.17,-85.9 -768.19,403.9 -768.19,403.9 0,0 -540.1,-580 -696.48,-519.3 -156.38,60.7 120.34,868.3 120.34,868.3 0,0 -757.52,285 -716.03,472.2 31.81,143.5 885.81,161.7 885.81,161.7"
         style="fill:#ffc35f;fill-opacity:1;fill-rule:nonzero;stroke:none"
         id="path16" />
      <path
         d="m 10035.5,17737.3 c 0,0 226.2,1198.1 457.9,1209 231.7,10.8 546.6,-1192.5 546.6,-1192.5 0,0 1094.5,95.4 1273.1,-84.4 178.6,-179.7 -891.6,-892.9 -891.6,-892.9 0,0 454.3,-1137.8 287.7,-1260 -166.6,-122.2 -1138.4,683.9 -1138.4,683.9 0,0 -875.51,-839.1 -1109.12,-732.8 -233.61,106.4 259.35,1316 259.35,1316 0,0 -1132.43,501.2 -1052.77,783.6 61.07,216.5 1367.24,170.1 1367.24,170.1"
         style="fill:#ffc35f;fill-opacity:1;fill-rule:nonzero;stroke:none"
         id="path18" />
      <path
         d="m 13944.6,17202.8 c 0,0 335.7,935.2 523.6,914.2 187.8,-21 286.8,-1029.8 286.8,-1029.8 0,0 893,-63.8 1013.7,-231.3 120.7,-167.6 -832.1,-604.2 -832.1,-604.2 0,0 219.6,-973.9 69.8,-1050.8 -149.8,-77 -828.3,696.4 -828.3,696.4 0,0 -812.3,-562.9 -986.6,-447.4 -174.4,115.6 377.6,1025.8 377.6,1025.8 0,0 -847,548.7 -746.7,765.7 76.9,166.4 1122.2,-38.6 1122.2,-38.6"
         style="fill:#ffc35f;fill-opacity:1;fill-rule:nonzero;stroke:none"
         id="path20" />
      <path
         d="m 6330.57,17117.6 c 0,0 235.04,965.5 424.04,964.5 189.01,-1.1 394.09,-993.7 394.09,-993.7 0,0 894.76,31 1032.47,-122.9 137.7,-153.9 -763.63,-688.7 -763.63,-688.7 0,0 321.35,-945.3 180.56,-1037.6 -140.79,-92.4 -897.33,604.9 -897.33,604.9 0,0 -748.21,-645.6 -933.8,-549.1 -185.58,96.5 267.07,1059.9 267.07,1059.9 0,0 -900.25,456.1 -823.41,682.5 58.92,173.6 1119.94,80.2 1119.94,80.2"
         style="fill:#ffc35f;fill-opacity:1;fill-rule:nonzero;stroke:none"
         id="path22" />
      <path
         d="m 17359.1,16155.7 c 0,0 131.7,786 282.9,796.2 151.3,10.2 373.2,-771.9 373.2,-771.9 0,0 713.9,77 833,-38 119.1,-115.1 -570.6,-595.4 -570.6,-595.4 0,0 312.1,-737.4 204.9,-819.4 -107.2,-82.1 -753,431.5 -753,431.5 0,0 -560.8,-560.1 -714.9,-493.7 -154,66.4 151.8,863.4 151.8,863.4 0,0 -746.7,312.3 -698.4,497.8 37,142.3 891.1,129.5 891.1,129.5"
         style="fill:#ffc35f;fill-opacity:1;fill-rule:nonzero;stroke:none"
         id="path24" />
      <path
         d="m 13051.5,13608.6 c -196.8,227.2 -418.6,-63.7 -418.6,-63.7 -51.7,199.6 -153.1,239 -182.7,206.4 -29.6,-32.5 8.4,-60 39.4,-163 25.3,-84.2 67.4,-308.5 82,-391.6 l -100.7,-294.8 391.2,-87.7 35.7,273.9 c 3.3,25.7 16.8,49 37.6,64.4 127.9,95 290.9,254.5 116.1,456.1"
         style="fill:#f5a5a8;fill-opacity:1;fill-rule:nonzero;stroke:none"
         id="path26" />
      <path
         d="m 12979,13262.8 c -11.7,0 -22.8,3.9 -33.8,12.1 -18.1,13.4 -21.9,30.4 -19.9,45.1 -19.1,-6.5 -43.2,-7.1 -62.9,12.5 -17.7,17.5 -21.2,37.6 -19,54.2 -19.1,-7.8 -43.2,-10.3 -62.3,7.5 -25.9,24.1 -22.8,56.3 -13.8,79.5 -20.7,-2.7 -51.8,-2.1 -70.5,19.5 -13,14.9 -18.5,33.3 -15.8,53.1 5.4,39.6 43.4,84.6 106.9,126.6 4.6,3.1 10.8,1.8 13.9,-2.8 3,-4.6 1.8,-10.8 -2.8,-13.8 -57.9,-38.3 -93.6,-79.4 -98.2,-112.7 -1.9,-14.1 1.8,-26.7 11.1,-37.3 20.9,-24.1 70.5,-9.3 71,-9.1 l 27.3,8.3 -16.2,-23.6 c -1.2,-1.8 -29.8,-44.6 0.7,-73 23.6,-22 59.1,6.6 60.6,7.9 l 49.6,40.7 -34.9,-53.9 c -0.8,-1.2 -19.3,-31.3 6.5,-56.9 25.5,-25.4 60.1,1.4 61.6,2.5 l 56,44.2 -41.7,-57.9 c -2,-2.7 -18.4,-27.3 4.7,-44.5 23.2,-17.2 49,-11.8 126.1,65.9 3.9,3.9 10.2,3.9 14.1,0 4,-3.8 4,-10.2 0.1,-14.1 -50.2,-50.6 -86.4,-80 -118.4,-80"
         style="fill:#ef6b51;fill-opacity:1;fill-rule:nonzero;stroke:none"
         id="path28" />
      <path
         d="m 12944.3,13331.4 c -2.8,0 -5.6,1.2 -7.6,3.5 -3.6,4.1 -3.1,10.5 1,14.1 l 138.3,119.1 c 4.2,3.6 10.5,3.2 14.1,-1 3.6,-4.2 3.2,-10.5 -1,-14.2 l -138.3,-119.1 c -1.9,-1.6 -4.2,-2.4 -6.5,-2.4"
         style="fill:#ef6b51;fill-opacity:1;fill-rule:nonzero;stroke:none"
         id="path30" />
      <path
         d="m 12861.6,13399 c -2.7,0 -5.5,1.2 -7.5,3.4 -3.6,4.2 -3.2,10.5 0.9,14.1 l 177.5,156.4 c 4.1,3.6 10.4,3.2 14.1,-0.9 3.6,-4.2 3.2,-10.5 -0.9,-14.1 l -177.5,-156.4 c -1.9,-1.6 -4.2,-2.5 -6.6,-2.5"
         style="fill:#ef6b51;fill-opacity:1;fill-rule:nonzero;stroke:none"
         id="path32" />
      <path
         d="m 12785.8,13477.6 c -2.8,0 -5.6,1.2 -7.6,3.4 -3.6,4.2 -3.1,10.5 1,14.2 l 172.1,149 c 4.2,3.6 10.5,3.1 14.1,-1 3.7,-4.2 3.2,-10.5 -1,-14.1 l -172.1,-149.1 c -1.9,-1.6 -4.2,-2.4 -6.5,-2.4"
         style="fill:#ef6b51;fill-opacity:1;fill-rule:nonzero;stroke:none"
         id="path34" />
      <path
         d="m 7911.28,13608.6 c 196.88,227.2 418.61,-63.7 418.61,-63.7 51.73,199.6 153.13,239 182.73,206.4 29.61,-32.5 -8.42,-60 -39.39,-163 -25.29,-84.2 -67.38,-308.5 -82.05,-391.6 l 100.76,-294.8 -391.26,-87.7 -35.67,273.9 c -3.34,25.7 -16.82,49 -37.6,64.4 -127.89,95 -290.92,254.5 -116.13,456.1"
         style="fill:#f5a5a8;fill-opacity:1;fill-rule:nonzero;stroke:none"
         id="path36" />
      <path
         d="m 7983.81,13262.8 c -31.99,0 -68.16,29.4 -118.39,80 -3.89,3.9 -3.86,10.3 0.06,14.1 3.92,3.9 10.26,3.9 14.14,0 77.06,-77.7 102.94,-83.2 126.09,-65.9 23.09,17.2 6.65,41.8 4.7,44.6 l -39.89,56.3 54.22,-42.7 c 1.45,-1.1 36.28,-27.7 61.62,-2.5 26.04,25.8 7.24,55.7 6.43,56.9 l -35.32,54.7 50.1,-41.6 c 1.49,-1.2 36.94,-29.8 60.55,-7.8 30.5,28.4 1.89,71.2 0.66,73 l -15.98,23.5 27.16,-8.2 c 0.5,-0.2 50.05,-14.9 70.96,9.1 9.26,10.6 12.98,23.2 11.07,37.3 -4.55,33.3 -40.32,74.4 -98.13,112.7 -4.61,3 -5.87,9.2 -2.83,13.8 3.05,4.6 9.26,5.9 13.86,2.8 63.54,-42 101.51,-87 106.91,-126.6 2.69,-19.8 -2.77,-38.2 -15.79,-53.1 -18.73,-21.6 -49.74,-22.2 -70.54,-19.5 9.03,-23.2 12.13,-55.4 -13.72,-79.5 -19.17,-17.8 -43.21,-15.4 -62.36,-7.5 2.19,-16.6 -1.26,-36.7 -18.94,-54.2 -19.76,-19.6 -43.82,-19 -62.97,-12.5 2.03,-14.7 -1.8,-31.7 -19.83,-45.1 -11.04,-8.2 -22.17,-12.1 -33.84,-12.1"
         style="fill:#ef6b51;fill-opacity:1;fill-rule:nonzero;stroke:none"
         id="path38" />
      <path
         d="m 8018.54,13331.4 c -2.31,0 -4.63,0.8 -6.52,2.4 l -138.3,119.1 c -4.18,3.7 -4.65,10 -1.05,14.2 3.6,4.1 9.91,4.6 14.11,1 l 138.3,-119.1 c 4.18,-3.6 4.65,-10 1.05,-14.1 -1.98,-2.3 -4.77,-3.5 -7.59,-3.5"
         style="fill:#ef6b51;fill-opacity:1;fill-rule:nonzero;stroke:none"
         id="path40" />
      <path
         d="m 8101.18,13399 c -2.35,0 -4.71,0.9 -6.61,2.5 l -177.44,156.4 c -4.14,3.6 -4.54,9.9 -0.89,14.1 3.65,4.1 9.98,4.5 14.12,0.9 l 177.44,-156.4 c 4.14,-3.6 4.54,-9.9 0.89,-14.1 -1.98,-2.2 -4.74,-3.4 -7.51,-3.4"
         style="fill:#ef6b51;fill-opacity:1;fill-rule:nonzero;stroke:none"
         id="path42" />
      <path
         d="m 8177.03,13477.6 c -2.32,0 -4.65,0.8 -6.55,2.4 l -172.1,149.1 c -4.17,3.6 -4.63,9.9 -1.01,14.1 3.62,4.1 9.92,4.6 14.11,1 l 172.1,-149 c 4.17,-3.7 4.63,-10 1.01,-14.2 -1.98,-2.2 -4.76,-3.4 -7.56,-3.4"
         style="fill:#ef6b51;fill-opacity:1;fill-rule:nonzero;stroke:none"
         id="path44" />
      <path
         d="m 8044.02,2053.7 c 32.74,533.6 851.06,252.1 844.52,743.1 h 729.2 l -56.82,-743.1 h -1516.9"
         style="fill:#0e0e0e;fill-opacity:1;fill-rule:nonzero;stroke:none"
         id="path46" />
      <path
         d="m 12847.5,2053.7 c -32.7,533.6 -851,252.1 -844.5,743.1 h -729.2 l 56.8,-743.1 h 1516.9"
         style="fill:#0e0e0e;fill-opacity:1;fill-rule:nonzero;stroke:none"
         id="path48" />
      <path
         d="M 8978.85,8430.6 8758.06,2707.1 h 932.93 l 948.51,5709.9 -1660.65,13.6"
         style="fill:#487bbb;fill-opacity:1;fill-rule:nonzero;stroke:none"
         id="path50" />
      <path
         d="m 10193.5,8419.7 980.8,-5712.6 h 921.8 l -322.2,5723.5 -1580.4,-10.9"
         style="fill:#487bbb;fill-opacity:1;fill-rule:nonzero;stroke:none"
         id="path52" />
      <path
         d="m 7923.3,12969.2 656.25,163 450.86,-1373 582.07,-970.5 c 0,0 333.24,195.6 818.62,177.5 485.4,-18.1 829.5,-177.5 829.5,-177.5 l 765.2,979.2 310.8,1291 710.6,-143.3 c 0,0 -214.7,-1110.4 -342.5,-1514.7 -127.9,-404.3 -1115.8,-1722.2 -1115.8,-1722.2 l 373.5,-1952.8 c -1049,-124.9 -2098.87,-124.7 -3149.69,0 l 291.72,1910.3 c 0,0 -692.25,1532.4 -816.6,1862.9 -124.35,330.5 -364.53,1470.1 -364.53,1470.1"
         style="fill:#e0e0e0;fill-opacity:1;fill-rule:nonzero;stroke:none"
         id="path54" />
      <path
         d="m 10411.5,10746.6 c 337.1,-12.2 459.3,163.3 459.5,163.5 -124.8,27.2 -274.1,49.9 -439.9,56.1 -148.5,5.5 -282.6,-9 -397.4,-31.7 0.2,-0.8 41.2,-175.7 377.8,-187.9"
         style="fill:#0e0e0e;fill-opacity:1;fill-rule:nonzero;stroke:none"
         id="path56" />
      <path
         d="m 10871,11529.3 -114.6,-597.1 c -65.8,-128.3 -604.1,-111.8 -610.6,20.7 l 91.7,480.1 633.5,96.3"
         style="fill:#f5a5a8;fill-opacity:1;fill-rule:nonzero;stroke:none"
         id="path58" />
      <path
         d="m 11033.1,11838.1 c 69.3,26.9 156.5,-7.1 189.3,-73.9 32.8,-66.8 6.3,-156.6 -57.4,-195 -63.7,-38.4 -155.5,-19.8 -199.2,40.4 -92.5,-180.5 -284.3,-306 -486.7,-318.8 -202.5,-12.9 -408.4,87.3 -523.57,254.4 -115.14,167 -135.51,394.9 -52.1,579.9 83.41,184.9 267.57,320.5 468.87,345.4 172.2,21.4 352.7,-37.2 479.6,-155.6 126.8,-118.3 190.5,-303.5 181.2,-476.8"
         style="fill:#f5a5a8;fill-opacity:1;fill-rule:nonzero;stroke:none"
         id="path60" />
      <path
         d="m 11033.1,11838.2 c 0.5,-31 -15.7,-69.6 -29.2,-97.5 -13.4,-27.8 -45.3,-49.3 -74.9,-40.5 -36.1,10.7 -47.6,58 -39.2,94.8 8.5,36.8 30,69.8 36.1,107.1 7.3,44.3 -8.7,90.4 -36.2,125.9 -27.5,35.6 -65.5,61.6 -105.6,82.1 -78.5,40 -165.4,60.1 -251.5,79.1 -86.1,19 -173.2,37.4 -253.1,74.7 -58.6,27.3 -113.6,65.9 -153.6,116.1 -14.6,18.2 -27.2,37.9 -37.2,59.2 -37.6,79.8 -32.9,182.5 25.6,248.3 33.1,37.2 87.3,60.5 133.7,42.6 46.6,-17.9 69.8,-68.3 101.3,-106.9 50.8,-62.3 128.2,-96.6 205.3,-119.2 77.1,-22.7 157.3,-36 231.4,-66.9 112.2,-46.8 206.9,-134.3 262.4,-242.3 55.6,-108.1 72.9,-229.3 45.5,-347.8 -11.7,0.3 -32.1,1.2 -60.8,-8.8"
         style="fill:#0e0e0e;fill-opacity:1;fill-rule:nonzero;stroke:none"
         id="path62" />
      <path
         d="m 11071.4,11637.1 c -6.7,0 -13.9,0.8 -21.5,2.4 l 4.2,19.5 c 38.8,-8.2 59.6,11.5 65.5,31 6.1,20.1 -1.3,47.5 -32.2,59.9 l 7.5,18.6 c 40.6,-16.4 52.8,-54.8 43.8,-84.4 -7.6,-25 -30.9,-47 -67.3,-47"
         style="fill:#ef6b51;fill-opacity:1;fill-rule:nonzero;stroke:none"
         id="path64" />
      <path
         d="m 10453.8,11863 c -1.3,0 -2.6,0.2 -3.9,0.6 -8,2.1 -12.8,10.3 -10.6,18.3 l 24.7,92.8 c 2.1,8 10.3,12.7 18.3,10.6 8,-2.2 12.8,-10.4 10.7,-18.4 l -24.7,-92.7 c -1.8,-6.7 -7.9,-11.2 -14.5,-11.2"
         style="fill:#0e0e0e;fill-opacity:1;fill-rule:nonzero;stroke:none"
         id="path66" />
      <path
         d="m 10103.4,11943.5 c -1.2,0 -2.5,0.2 -3.7,0.5 -8,2 -12.9,10.2 -10.9,18.2 l 22.1,87.6 c 2,8 10.1,12.8 18.2,10.8 8,-2 12.9,-10.2 10.9,-18.2 l -22.1,-87.5 c -1.7,-6.8 -7.8,-11.4 -14.5,-11.4"
         style="fill:#0e0e0e;fill-opacity:1;fill-rule:nonzero;stroke:none"
         id="path68" />
      <path
         d="m 10187,11691.1 c -3.9,0 -7.7,1.5 -10.7,4.4 -13.5,13.6 -20.3,30.1 -20,48.8 0.8,48 49.4,94.3 51.5,96.3 6,5.6 15.5,5.3 21.2,-0.7 5.7,-6 5.4,-15.5 -0.6,-21.2 -11.6,-10.9 -41.6,-45.7 -42.1,-74.9 -0.1,-10.5 3.6,-19.4 11.3,-27.1 5.8,-5.9 5.8,-15.4 -0.1,-21.3 -2.9,-2.9 -6.7,-4.3 -10.5,-4.3"
         style="fill:#0e0e0e;fill-opacity:1;fill-rule:nonzero;stroke:none"
         id="path70" />
      <path
         d="m 10397.1,11508.6 c -8.2,0 -14.9,6.6 -15,14.9 -0.1,8.2 6.5,15 14.8,15.1 v 0 c 2.7,0.1 66.4,2 107.3,61.4 4.7,6.8 14,8.6 20.8,3.9 6.9,-4.7 8.6,-14 3.9,-20.9 -49.9,-72.6 -128.3,-74.3 -131.6,-74.4 -0.1,0 -0.1,0 -0.2,0"
         style="fill:#0e0e0e;fill-opacity:1;fill-rule:nonzero;stroke:none"
         id="path72" />
      <path
         d="m 8919.14,6867.6 c -5.99,0 -11.64,3.6 -13.96,9.5 -3.04,7.7 0.75,16.4 8.46,19.5 4.83,1.9 483.87,196.9 578.7,767.5 1.36,8.1 9.06,13.7 17.26,12.3 8.17,-1.4 13.7,-9.1 12.33,-17.3 -51.04,-307.1 -210.5,-505.6 -335.29,-618 -135.29,-121.9 -256.91,-170.4 -262.03,-172.4 -1.79,-0.7 -3.65,-1.1 -5.47,-1.1"
         style="fill:#0e0e0e;fill-opacity:1;fill-rule:nonzero;stroke:none"
         id="path74" />
      <path
         d="m 11861.8,6854.1 c -2.5,0 -5,0.6 -7.3,1.9 -4,2.3 -400,231.2 -553.1,804.9 -2.1,8 2.6,16.2 10.6,18.3 8.1,2.2 16.2,-2.6 18.4,-10.6 149.9,-561.6 534.9,-784.3 538.8,-786.5 7.2,-4 9.8,-13.2 5.7,-20.4 -2.8,-4.9 -7.9,-7.6 -13.1,-7.6"
         style="fill:#0e0e0e;fill-opacity:1;fill-rule:nonzero;stroke:none"
         id="path76" />
      <path
         d="m 10427.7,7040.7 c -7.2,0 -13.5,5.2 -14.8,12.5 l -76.1,443.1 c -1.4,8.2 4.1,15.9 12.3,17.4 8.1,1.3 15.9,-4.1 17.3,-12.3 l 76.1,-443.1 c 1.4,-8.2 -4.1,-16 -12.3,-17.4 -0.8,-0.1 -1.7,-0.2 -2.5,-0.2"
         style="fill:#0e0e0e;fill-opacity:1;fill-rule:nonzero;stroke:none"
         id="path78" />
      <path
         d="m 9714.11,2864.5 h -944.54 c -8.28,0 -15,6.8 -15,15 0,8.3 6.72,15 15,15 h 944.54 c 8.28,0 15,-6.7 15,-15 0,-8.2 -6.72,-15 -15,-15"
         style="fill:#0e0e0e;fill-opacity:1;fill-rule:nonzero;stroke:none"
         id="path80" />
      <path
         d="m 12081.6,2864.5 h -929.9 c -8.3,0 -15,6.8 -15,15 0,8.3 6.7,15 15,15 h 929.9 c 8.2,0 15,-6.7 15,-15 0,-8.2 -6.8,-15 -15,-15"
         style="fill:#0e0e0e;fill-opacity:1;fill-rule:nonzero;stroke:none"
         id="path82" />
      <path
         d="m 3242.49,3396.4 -133.11,-322.2 176.62,-149.3 223.07,-52.1 243.89,329.7 -510.47,193.9"
         style="fill:#f5a5a8;fill-opacity:1;fill-rule:nonzero;stroke:none"
         id="path84" />
      <path
         d="m 3109.38,3074.2 -300.92,-418.7 405.36,-204.2 57.99,78.2 98.12,-156.9 606.5,-305.5 c 68.57,354.8 -544.13,536 -467.36,805.7 l -399.69,201.4"
         style="fill:#ef6b51;fill-opacity:1;fill-rule:nonzero;stroke:none"
         id="path86" />
      <path
         d="m 6008.61,2910.6 26.07,-347.6 224.9,-53.8 222.65,53.8 69.52,404.1 -543.14,-56.5"
         style="fill:#f5a5a8;fill-opacity:1;fill-rule:nonzero;stroke:none"
         id="path88" />
      <path
         d="m 4256.91,7609.7 19.63,-2479.6 -1532.76,-1750 1539.12,-603 c 0,0 786.7,1651.5 931.64,2117.1 144.94,465.5 569.36,2717.2 569.36,2717.2 l -1526.99,-1.7"
         style="fill:#0e0e0e;fill-opacity:1;fill-rule:nonzero;stroke:none"
         id="path90" />
      <path
         d="M 5390.95,7447.9 5881.51,4914.1 5218.54,2773 h 1735.87 l -140.17,2216.6 21.51,2544.6 -1444.8,-86.3"
         style="fill:#0e0e0e;fill-opacity:1;fill-rule:nonzero;stroke:none"
         id="path92" />
      <path
         d="m 6882.29,12143 c -195.01,189.7 -372.63,-89.7 -372.63,-89.7 -61.99,176.1 -156.46,203.8 -180.67,172.2 -24.2,-31.6 12.22,-53.5 48.06,-144.1 29.28,-73.9 84.47,-273 104.09,-346.8 l -68.22,-273.6 359.61,-49.1 11.12,249.9 c 1.04,23.4 11.4,45.4 28.96,60.9 108.04,95.5 242.82,251.9 69.68,420.3"
         style="fill:#f5a5a8;fill-opacity:1;fill-rule:nonzero;stroke:none"
         id="path94" />
      <path
         d="m 6839.56,11824.4 c -9.35,0 -18.59,2.8 -28.05,8.7 -17.03,10.5 -22.15,25.1 -21.87,38.5 -16.82,-7.1 -38.19,-9 -57.33,7.1 -16.97,14.2 -21.96,31.5 -21.65,46.6 -16.71,-8.2 -37.89,-11.7 -56.4,2.8 -24.99,19.6 -25.25,48.4 -19.24,70.1 -18.73,-3.8 -46.1,-5 -64.43,12.7 -13.1,12.7 -19.54,29.1 -18.61,47.4 1.84,36.5 32.75,80.2 87.05,123.2 4.32,3.4 10.62,2.7 14.04,-1.7 3.43,-4.3 2.7,-10.6 -1.64,-14 -48.98,-38.8 -77.95,-78.3 -79.48,-108.5 -0.63,-12.6 3.6,-23.3 12.56,-32 16.81,-16.3 51.68,-7.4 63.68,-2.6 l 26.55,10.6 -14.13,-24.8 c -0.94,-1.7 -23.05,-41.9 5.99,-64.7 22.5,-17.6 52.46,11.4 52.75,11.7 l 46.41,45.7 -30.57,-57.5 c -0.58,-1.1 -14.66,-29.1 9.95,-49.7 24.14,-20.2 52.93,5.9 54.14,7.1 l 51.24,47.3 -35.85,-59.8 c -1.47,-2.5 -13.98,-25.3 7.38,-38.5 21.75,-13.5 44.34,-6.6 107.42,68.9 3.54,4.2 9.84,4.8 14.08,1.3 4.24,-3.6 4.8,-9.9 1.26,-14.1 -43.48,-52.1 -74.9,-81.8 -105.25,-81.8"
         style="fill:#ef6b51;fill-opacity:1;fill-rule:nonzero;stroke:none"
         id="path96" />
      <path
         d="m 6806.09,11883.7 c -2.52,0 -5.05,1 -6.99,2.9 -3.95,3.8 -4.02,10.2 -0.16,14.1 l 115.58,118.1 c 3.87,3.9 10.2,4 14.14,0.1 3.95,-3.8 4.02,-10.1 0.15,-14.1 l -115.57,-118.1 c -1.96,-2 -4.55,-3 -7.15,-3"
         style="fill:#ef6b51;fill-opacity:1;fill-rule:nonzero;stroke:none"
         id="path98" />
      <path
         d="m 6726.37,11938.4 c -2.49,0 -4.98,0.9 -6.92,2.8 -3.99,3.8 -4.13,10.1 -0.31,14.1 l 148.02,154.6 c 3.81,4 10.14,4.2 14.13,0.3 3.99,-3.8 4.13,-10.1 0.31,-14.1 l -148.01,-154.6 c -1.96,-2.1 -4.59,-3.1 -7.22,-3.1"
         style="fill:#ef6b51;fill-opacity:1;fill-rule:nonzero;stroke:none"
         id="path100" />
      <path
         d="m 6651.92,12003.4 c -2.51,0 -5.03,1 -6.97,2.9 -3.96,3.8 -4.04,10.1 -0.19,14.1 l 143.76,147.6 c 3.86,4 10.19,4.1 14.15,0.2 3.95,-3.8 4.03,-10.2 0.18,-14.1 l -143.76,-147.7 c -1.96,-2 -4.56,-3 -7.17,-3"
         style="fill:#ef6b51;fill-opacity:1;fill-rule:nonzero;stroke:none"
         id="path102" />
      <path
         d="m 5797.29,9908.7 309.87,559.9 85.48,1152 1007.07,-233.8 -356.76,-1199.8 -524.16,-1321.9 -521.5,1043.6"
         style="fill:#2b8c79;fill-opacity:1;fill-rule:nonzero;stroke:none"
         id="path104" />
      <path
         d="m 3755.24,9201 c -3.26,76.4 16.04,257.5 21.95,336.8 7.24,97.1 30.67,119 -6.65,132.9 -49.05,18.2 -78.22,-65.5 -98.27,-207.9 -1.77,-12.6 -19.6,-13.4 -22.51,-1.1 -32.82,139.2 -110.32,490.3 -165.47,478.4 -57.57,-12.5 -6.82,-196.8 34.06,-370.4 1.99,-8.5 -3.49,-16.7 -11.97,-18.5 -0.05,0 -0.11,0 -0.16,0 -4.82,-1.1 -9.78,1.1 -12.11,5.4 -95.42,178.4 -171.88,365.1 -226.91,333.9 -48.03,-27.2 49.15,-208.6 134.64,-372.5 2.63,-5 0.93,-11.2 -3.92,-14.2 -0.06,0 -0.12,-0.1 -0.18,-0.1 -4.64,-2.8 -10.69,-1.9 -14.14,2.3 -118.34,144.2 -215.39,275.4 -260.19,236.4 -39.29,-34.3 67.2,-162 176.31,-295.3 6.02,-7.3 6.9,-17.6 2.2,-25.9 l -0.15,-0.2 c -3.49,-6.2 -11.81,-7.4 -16.92,-2.5 -111.02,106.6 -170.27,157.7 -198.62,125.3 -32.46,-37 225.35,-286.5 225.35,-286.5 54.93,-113 176.6,-215.9 176.6,-215.9 l 85.07,-235.2 328.64,154 -146.65,240.8"
         style="fill:#f5a5a8;fill-opacity:1;fill-rule:nonzero;stroke:none"
         id="path106" />
      <path
         d="m 5797.29,9908.7 -682.62,-32.3 -565.58,-247.1 -472.38,-2617.4 c 868.65,-122.7 2421.79,65.4 3001.47,467.7 L 5797.29,9908.7"
         style="fill:#2b8c79;fill-opacity:1;fill-rule:nonzero;stroke:none"
         id="path108" />
      <path
         d="m 4514.56,11168.7 c -624.63,-219.1 -124.79,-919.3 -289.77,-1382 191.37,-76.7 1257.76,134 1690.07,499.4 0,0 -154.82,925.5 -710.6,1089.1 -531.1,156.4 -689.7,-206.5 -689.7,-206.5"
         style="fill:#0e0e0e;fill-opacity:1;fill-rule:nonzero;stroke:none"
         id="path110" />
      <path
         d="m 4693.67,10299 205.47,-541.1 c 78.34,-103.6 544.5,9 529.66,127.4 l -158.56,426.7 -576.57,-13"
         style="fill:#f5a5a8;fill-opacity:1;fill-rule:nonzero;stroke:none"
         id="path112" />
      <path
         d="m 4502.01,10547.6 c -65.67,13.1 -137.7,-30.6 -156.39,-94.9 -18.69,-64.3 18.69,-139.8 81.15,-164 62.47,-24.1 140.92,6.6 170.34,66.8 110.08,-145.7 299.56,-227.2 481.07,-207.1 181.51,20.1 348.52,140.9 424.67,306.8 76.14,166 58.81,371.3 -43.87,522.3 -102.67,151 -286.99,242.6 -469.38,233.4 -155.99,-7.8 -306.9,-87.7 -400.99,-212.4 -94.09,-124.6 -121.83,-298.7 -86.6,-450.9"
         style="fill:#f5a5a8;fill-opacity:1;fill-rule:nonzero;stroke:none"
         id="path114" />
      <path
         d="m 4486.24,10361.3 c -26.15,0 -45.55,14.5 -54.89,32.9 -12.77,25.3 -7.88,61.8 26.15,82.9 l 10.55,-17 c -24.92,-15.4 -27.24,-40.3 -18.86,-56.8 8.08,-15.9 29.07,-29.9 61.63,-16.8 l 7.48,-18.5 c -11.52,-4.7 -22.26,-6.7 -32.06,-6.7"
         style="fill:#ef6b51;fill-opacity:1;fill-rule:nonzero;stroke:none"
         id="path116" />
      <path
         d="m 5272.68,10546.9 c -5.33,0 -10.49,2.9 -13.2,7.9 -3.94,7.3 -1.23,16.4 6.05,20.3 11.69,6.4 18.33,12.1 19.22,16.7 2.08,10.8 -18.1,35.1 -43.64,65.8 -10.92,13.1 -23.28,28 -36.93,45.3 -5.13,6.5 -4.02,15.9 2.47,21.1 6.51,5.1 15.94,4 21.07,-2.5 13.42,-17 25.66,-31.7 36.45,-44.7 35.34,-42.5 54.8,-65.9 50.03,-90.7 -3.58,-18.5 -20.26,-29.7 -34.39,-37.3 -2.27,-1.3 -4.72,-1.9 -7.13,-1.9"
         style="fill:#0e0e0e;fill-opacity:1;fill-rule:nonzero;stroke:none"
         id="path118" />
      <path
         d="m 5100.04,10351.7 c -24.87,0 -72.39,6.1 -112.51,47 -5.79,5.9 -5.7,15.4 0.21,21.2 5.93,5.8 15.42,5.7 21.22,-0.2 44.88,-45.8 101,-37.7 103.35,-37.3 8.13,1.2 15.84,-4.3 17.14,-12.5 1.3,-8.1 -4.21,-15.8 -12.37,-17.1 -0.84,-0.2 -7.15,-1.1 -17.04,-1.1"
         style="fill:#0e0e0e;fill-opacity:1;fill-rule:nonzero;stroke:none"
         id="path120" />
      <path
         d="m 5496.24,10952 c -214.72,-20.3 -444.67,30 -702.54,94.7 -20.21,-184 -126.32,-409.3 -291.69,-499.1 l -127.38,235.8 319.04,428.2 498.2,20.5 262.14,-208 42.23,-72.1"
         style="fill:#0e0e0e;fill-opacity:1;fill-rule:nonzero;stroke:none"
         id="path122" />
      <path
         d="m 4929.14,10650.2 c -5.86,0 -11.42,3.4 -13.84,9.1 -5.69,13.6 -5.77,28.5 -0.23,42.1 5.54,13.6 16.06,24.3 29.6,30 27.93,11.7 60.25,-1.4 72.01,-29.4 3.22,-7.6 -0.37,-16.4 -8,-19.6 -7.63,-3.2 -16.44,0.3 -19.65,8 -5.34,12.7 -20.04,18.7 -32.73,13.3 -6.15,-2.6 -10.93,-7.4 -13.45,-13.6 -2.52,-6.2 -2.48,-13 0.11,-19.1 3.21,-7.7 -0.38,-16.5 -8.01,-19.7 -1.9,-0.8 -3.87,-1.1 -5.81,-1.1"
         style="fill:#0e0e0e;fill-opacity:1;fill-rule:nonzero;stroke:none"
         id="path124" />
      <path
         d="m 5277.04,10796.6 c -5.86,0 -11.42,3.4 -13.84,9.1 -11.76,28 1.42,60.3 29.36,72.1 27.96,11.7 60.26,-1.5 72.02,-29.4 3.22,-7.6 -0.37,-16.4 -8,-19.6 -7.63,-3.3 -16.43,0.3 -19.65,8 -5.34,12.7 -19.99,18.7 -32.73,13.3 -12.7,-5.3 -18.69,-20 -13.34,-32.7 3.21,-7.7 -0.38,-16.5 -8.01,-19.7 -1.9,-0.8 -3.87,-1.1 -5.81,-1.1"
         style="fill:#0e0e0e;fill-opacity:1;fill-rule:nonzero;stroke:none"
         id="path126" />
      <path
         d="M 4208.29,9351 4062.31,8959.9 3988.2,9196 3088.56,8735.9 c 0,0 574.62,-950 874.62,-994.9 343.4,-51.3 353.5,172.7 730.49,900.6 l -144.58,987.7 -131.75,-57.5 C 4320.63,9529.5 4245.2,9449.9 4208.29,9351"
         style="fill:#2b8c79;fill-opacity:1;fill-rule:nonzero;stroke:none"
         id="path128" />
      <path
         d="m 4245.95,8400 c -4.19,0 -8.09,2.6 -9.49,6.8 l -183.64,549.9 c -1.75,5.3 1.08,10.9 6.32,12.7 5.22,1.7 10.9,-1.1 12.66,-6.3 l 183.63,-549.9 c 1.75,-5.3 -1.07,-10.9 -6.31,-12.7 -1.05,-0.3 -2.12,-0.5 -3.17,-0.5"
         style="fill:#0e0e0e;fill-opacity:1;fill-rule:nonzero;stroke:none"
         id="path130" />
      <path
         d="m 4188.21,7757.5 c -3.48,0 -6.86,1.8 -8.71,5 -2.72,4.8 -1.04,10.9 3.76,13.7 105.44,59.9 176.64,207.5 305.89,475.6 54.55,113.1 116.38,241.4 195.64,394.4 2.54,4.9 8.57,6.8 13.48,4.3 4.9,-2.6 6.82,-8.6 4.28,-13.5 -79.13,-152.8 -140.9,-280.9 -195.38,-393.9 -131.01,-271.7 -203.17,-421.3 -314.03,-484.3 -1.56,-0.9 -3.26,-1.3 -4.93,-1.3"
         style="fill:#0e0e0e;fill-opacity:1;fill-rule:nonzero;stroke:none"
         id="path132" />
      <path
         d="m 6331.16,8886.3 c -3.59,0 -7.06,1.9 -8.86,5.3 l -294.01,557.6 c -2.57,4.9 -0.7,10.9 4.18,13.5 4.88,2.6 10.94,0.7 13.52,-4.2 L 6340,8900.9 c 2.57,-4.8 0.7,-10.9 -4.19,-13.5 -1.48,-0.7 -3.08,-1.1 -4.65,-1.1"
         style="fill:#0e0e0e;fill-opacity:1;fill-rule:nonzero;stroke:none"
         id="path134" />
      <path
         d="m 6034.68,2563 -80.35,-509.3 h 453.89 l 16.59,95.9 158.2,-95.9 h 679.11 c -98.41,347.7 -727.11,233.9 -779.89,509.3 h -447.55"
         style="fill:#ef6b51;fill-opacity:1;fill-rule:nonzero;stroke:none"
         id="path136" />
      <path
         d="m 13723.9,2053.7 c 32.7,533.6 851.1,252.1 844.5,743.1 h 562.3 l 110.1,-743.1 h -1516.9"
         style="fill:#805034;fill-opacity:1;fill-rule:nonzero;stroke:none"
         id="path138" />
      <path
         d="m 17116.2,2053.7 c -200.8,495.4 658.8,594.7 441,1034.8 l 507.2,242.7 420.1,-622.8 -1368.3,-654.7"
         style="fill:#805034;fill-opacity:1;fill-rule:nonzero;stroke:none"
         id="path140" />
      <path
         d="m 14391.7,7818.5 c 0,0 -207.9,-2409.1 -162.1,-2824.9 45.8,-415.9 244.1,-2216.4 244.1,-2216.4 h 757.3 l -53.8,2241 559.6,2683.4 -1345.1,116.9"
         style="fill:#e0e0e0;fill-opacity:1;fill-rule:nonzero;stroke:none"
         id="path142" />
      <path
         d="m 15351.7,7559.1 c 0,0 523.7,-2448.5 768,-2799 244.3,-350.5 1333.5,-1879.9 1333.5,-1879.9 l 695.3,441.4 -1152.3,1858.3 -371.8,2638.6 -1272.7,-259.4"
         style="fill:#e0e0e0;fill-opacity:1;fill-rule:nonzero;stroke:none"
         id="path144" />
      <path
         d="m 17693.5,9923.6 c -4.4,81.1 -43.4,271 -57.9,354.4 -17.6,102.1 -44.7,122.9 -6.6,141.4 50.1,24.4 89.6,-61.2 125.5,-210 3.2,-13.2 22.1,-12.3 24,1.1 20.4,150.8 66.4,530.7 126,523.7 62.3,-7.3 27.5,-207.7 2.1,-395.8 -1.3,-9.1 5.4,-17.3 14.5,-18.4 0.1,0 0.1,0 0.2,0 5.2,-0.6 10.3,2.2 12.3,7.1 82.7,198.7 144.5,404.3 206,377 53.7,-23.9 -30.6,-226 -104.3,-408.4 -2.3,-5.7 0.1,-12.1 5.6,-14.7 0.1,0 0.1,-0.1 0.2,-0.1 5.2,-2.5 11.5,-0.9 14.7,4 110.5,164.8 199.9,313.8 251.3,277 45.2,-32.2 -54.5,-178.5 -156.4,-330.8 -5.6,-8.4 -5.5,-19.4 0.4,-27.7 l 0.2,-0.2 c 4.3,-6.2 13.2,-6.6 18.1,-0.9 106.7,124.3 164.2,184.5 197.5,153.2 38.2,-35.9 -209.2,-326.7 -209.2,-326.7 -46.6,-125.4 -164.9,-246.9 -164.9,-246.9 l -65.9,-257.9 -363.9,129.4 130.5,270.2"
         style="fill:#f5a5a8;fill-opacity:1;fill-rule:nonzero;stroke:none"
         id="path146" />
      <path
         d="m 15921.7,10502.3 c -509.2,90.4 -1004.8,-114.7 -1004.8,-114.7 l -789.6,-2776.9 c 0,0 1256.7,-439 2756.6,-196.4 l -129.3,2755.9 c 0,0 -364.7,249 -832.9,332.1"
         style="fill:#ef6b51;fill-opacity:1;fill-rule:nonzero;stroke:none"
         id="path148" />
      <path
         d="m 13933.5,13412.4 c 224.9,199.5 406.7,-117.9 406.7,-117.9 77.4,191.2 183.1,217 208.2,180.9 25.1,-36.2 -16.2,-58.5 -60.4,-156.6 -36.1,-80.1 -107.1,-297 -132.5,-377.5 l 61.4,-305.4 -399.4,-35.9 0.4,276.3 c 0.1,25.9 -10.2,50.8 -28.8,68.8 -114.4,110.8 -255.2,290.3 -55.6,467.3"
         style="fill:#f5a5a8;fill-opacity:1;fill-rule:nonzero;stroke:none"
         id="path150" />
      <path
         d="m 13966.9,13059.7 c -33.9,0 -67.4,34.5 -113.6,95.2 -3.3,4.4 -2.5,10.7 1.9,14 4.4,3.4 10.7,2.5 14,-1.9 66.3,-87.1 91.2,-95.9 116.4,-81.8 25.2,14 12.1,40.6 10.5,43.6 l -32.2,61.1 48.2,-49.5 c 1.3,-1.2 32.4,-32.2 60.8,-10.6 28.9,22.1 14.4,54.4 13.8,55.7 l -26.5,57.2 42.9,-46.1 c 1.3,-1.4 32.7,-34.5 59,-15.8 33.9,24.2 11.2,70.5 10.2,72.4 l -12.8,25.4 25.8,-11.8 c 0.5,-0.2 47.7,-21.3 71.6,-0.2 10.6,9.3 15.9,21.3 15.8,35.5 -0.1,33.7 -30.2,79.1 -82.5,124.6 -4.2,3.6 -4.6,9.9 -1,14.1 3.6,4.1 9.9,4.6 14.1,1 57.5,-50 89.3,-99.6 89.4,-139.6 0.1,-20 -7.7,-37.4 -22.6,-50.6 -21.3,-18.9 -52.2,-15.4 -72.4,-10.1 5.9,-24.1 4.7,-56.5 -24,-77 -21.4,-15.2 -44.9,-9.6 -62.8,0.8 0,-16.8 -6.1,-36.3 -25.9,-51.4 -22.2,-16.8 -45.9,-13.1 -64.1,-4.1 0.1,-14.9 -5.9,-31.1 -25.5,-42.1 -9.7,-5.4 -19.1,-8 -28.5,-8"
         style="fill:#f17679;fill-opacity:1;fill-rule:nonzero;stroke:none"
         id="path152" />
      <path
         d="m 14005,13123.5 c -2.8,0 -5.5,1.1 -7.5,3.3 L 13876,13263 c -3.7,4.1 -3.4,10.4 0.8,14.1 4.1,3.7 10.4,3.3 14.1,-0.8 l 121.5,-136.2 c 3.7,-4.1 3.3,-10.4 -0.8,-14.1 -1.9,-1.7 -4.3,-2.5 -6.6,-2.5"
         style="fill:#f17679;fill-opacity:1;fill-rule:nonzero;stroke:none"
         id="path154" />
      <path
         d="m 14095.7,13179.8 c -2.8,0 -5.5,1.1 -7.5,3.4 l -155.5,178.2 c -3.6,4.1 -3.2,10.4 1,14.1 4.1,3.6 10.4,3.2 14.1,-1 l 155.5,-178.2 c 3.6,-4.1 3.2,-10.4 -1,-14.1 -1.9,-1.6 -4.2,-2.4 -6.6,-2.4"
         style="fill:#f17679;fill-opacity:1;fill-rule:nonzero;stroke:none"
         id="path156" />
      <path
         d="m 14181.2,13247.7 c -2.8,0 -5.5,1.2 -7.5,3.4 l -151.1,170.2 c -3.7,4.1 -3.3,10.5 0.8,14.1 4.1,3.7 10.4,3.3 14.1,-0.8 l 151.2,-170.2 c 3.6,-4.2 3.3,-10.5 -0.9,-14.1 -1.9,-1.7 -4.2,-2.6 -6.6,-2.6"
         style="fill:#f17679;fill-opacity:1;fill-rule:nonzero;stroke:none"
         id="path158" />
      <path
         d="m 16424.2,10969.3 -216.6,-539.8 c -113.6,-163.3 -627.5,-35.8 -608.5,95.5 l 184.9,470.6 640.2,-26.3"
         style="fill:#f5a5a8;fill-opacity:1;fill-rule:nonzero;stroke:none"
         id="path160" />
      <path
         d="m 16642.2,11241.5 c 73.2,13.2 152.3,-36.8 171.8,-108.6 19.4,-71.9 -23.7,-155 -93.6,-180.5 -69.9,-25.5 -156.4,10.2 -187.8,77.7 -125.3,-159.6 -337.4,-246.2 -538.6,-220.2 -201.2,26.1 -384.3,163.7 -465.4,349.7 -81.2,185.9 -57.7,413.5 59.5,579.2 117.2,165.6 323.8,263.5 526.2,249.6 173.1,-11.9 339.1,-103.8 441,-244.3 102,-140.4 129.2,-334.3 86.9,-502.6"
         style="fill:#f5a5a8;fill-opacity:1;fill-rule:nonzero;stroke:none"
         id="path162" />
      <path
         d="m 16657.3,11035.3 c -11.1,0 -23.4,2.5 -36.5,8 l 7.9,18.4 c 36.6,-15.5 60.7,-0.1 70.2,17.9 9.9,18.6 7.8,46.9 -20.2,65 l 10.9,16.8 c 36.8,-23.8 41.4,-63.9 27,-91.2 -10.4,-19.6 -31.4,-34.9 -59.3,-34.9"
         style="fill:#f17679;fill-opacity:1;fill-rule:nonzero;stroke:none"
         id="path164" />
      <path
         d="m 15826.4,11269.6 c -1.7,0 -3.3,0.3 -5,0.9 -24.7,8.6 -33.2,23.4 -35.9,34.2 -7.5,29.8 19.6,60.3 22.7,63.6 5.6,6.1 15.1,6.5 21.2,0.9 6.1,-5.6 6.5,-15 0.9,-21.1 v 0 c -6.3,-7 -18.5,-25 -15.7,-36.1 1.4,-5.4 7,-9.8 16.7,-13.2 7.8,-2.7 12,-11.3 9.2,-19.1 -2.1,-6.2 -7.9,-10.1 -14.1,-10.1"
         style="fill:#0e0e0e;fill-opacity:1;fill-rule:nonzero;stroke:none"
         id="path166" />
      <path
         d="m 16555.3,11744.1 c -101.9,140.5 -267.9,232.4 -441,244.3 -128.6,8.8 -258.9,-27.5 -366.9,-97.7 215.2,-150.7 466,-301.1 745.9,-451.3 26.9,-14.4 39.6,-46 30.1,-74.9 l -79.5,-241 c -6.7,-20.2 3.2,-42.1 22.8,-50.4 v 0 c 19.2,-8.1 41.4,-0.3 51.7,17.9 36.1,64.3 77.3,123.4 123.8,150.5 42.3,168.3 15.1,362.2 -86.9,502.6"
         style="fill:#0e0e0e;fill-opacity:1;fill-rule:nonzero;stroke:none"
         id="path168" />
      <path
         d="m 15786.8,11551 c -2.5,0 -5,0.6 -7.3,1.9 -7.2,4 -9.8,13.2 -5.8,20.4 6.7,12.1 2.3,27.3 -9.7,34 -5.8,3.3 -12.6,4 -19,2.2 -6.4,-1.8 -11.7,-6.1 -15,-11.9 -4,-7.2 -13.2,-9.8 -20.4,-5.8 -7.2,4 -9.8,13.1 -5.8,20.4 7.1,12.8 18.8,22.1 33,26.1 14.1,4.1 29,2.4 41.8,-4.8 26.5,-14.7 36,-48.3 21.3,-74.8 -2.7,-4.9 -7.8,-7.7 -13.1,-7.7"
         style="fill:#0e0e0e;fill-opacity:1;fill-rule:nonzero;stroke:none"
         id="path170" />
      <path
         d="m 16116.7,11367.6 c -2.5,0 -5,0.6 -7.3,1.9 -7.2,4 -9.8,13.2 -5.8,20.4 6.7,12.1 2.3,27.3 -9.7,34 -12,6.7 -27.3,2.4 -34,-9.7 -4,-7.2 -13.2,-9.8 -20.4,-5.8 -7.2,4 -9.8,13.2 -5.8,20.4 14.7,26.5 48.3,36.1 74.8,21.3 26.5,-14.7 36,-48.2 21.3,-74.8 -2.7,-4.9 -7.8,-7.7 -13.1,-7.7"
         style="fill:#0e0e0e;fill-opacity:1;fill-rule:nonzero;stroke:none"
         id="path172" />
      <path
         d="m 15839.1,11020.2 c -4.5,0 -8.9,0.3 -13.4,0.9 -50.9,7.3 -86.4,54.6 -79.1,105.5 1.1,8.2 8.7,13.9 16.9,12.7 8.2,-1.1 13.9,-8.7 12.8,-16.9 -5,-34.5 19.1,-66.7 53.6,-71.6 16.8,-2.4 33.4,1.9 46.9,12 13.5,10.1 22.2,24.9 24.6,41.6 1.2,8.2 8.7,13.9 17,12.8 8.2,-1.2 13.9,-8.8 12.7,-17 -3.5,-24.6 -16.4,-46.5 -36.3,-61.4 -16.3,-12.2 -35.7,-18.6 -55.7,-18.6"
         style="fill:#0e0e0e;fill-opacity:1;fill-rule:nonzero;stroke:none"
         id="path174" />
      <path
         d="m 16253.5,10543.7 -396,-171.2 -205,288.4 -155.4,-142 108.2,-402.6 225.8,162.5 123.4,-237.3 370.1,346.1 -71.1,156.1"
         style="fill:#ffffff;fill-opacity:1;fill-rule:nonzero;stroke:none"
         id="path176" />
      <path
         d="m 15136.1,10410.7 -476.4,1096.4 -218.7,1290.9 -527,-65.9 c 0,0 18.7,-1224 99.2,-1463.6 80.5,-239.7 673.6,-1961.9 673.6,-1961.9 l 449.3,1104.1"
         style="fill:#ef6b51;fill-opacity:1;fill-rule:nonzero;stroke:none"
         id="path178" />
      <path
         d="m 16661.4,9053.1 c 0,0 298.6,-876.7 619.3,-855.3 320.7,21.4 741.2,1461 741.2,1461 l -449,164 -270.8,-563.1 c 0,0 -150.5,638.9 -547.5,910.5 l -93.2,-1117.1"
         style="fill:#ef6b51;fill-opacity:1;fill-rule:nonzero;stroke:none"
         id="path180" />
      <path
         d="m 16577.7,6623.9 c -1.1,0 -2.3,0.2 -3.4,0.6 -443.5,160.2 -520.9,710.9 -521.6,716.4 -0.8,5.5 3.1,10.5 8.6,11.2 5.4,0.8 10.5,-3.1 11.2,-8.6 0.7,-5.4 76.7,-544.1 508.6,-700.2 5.2,-1.9 7.9,-7.6 6,-12.8 -1.5,-4.1 -5.3,-6.6 -9.4,-6.6"
         style="fill:#0e0e0e;fill-opacity:1;fill-rule:nonzero;stroke:none"
         id="path182" />
      <path
         d="m 14306.7,6735.4 c -2.2,0 -4.4,0.8 -6.2,2.2 -4.3,3.5 -5,9.8 -1.6,14.1 152.5,191.4 232.4,379 272.5,502.7 43.4,134.1 50.9,224.1 51,225 0.4,5.5 5.3,9.6 10.7,9.2 5.5,-0.4 9.6,-5.2 9.2,-10.7 -0.3,-3.7 -31.7,-367.3 -327.8,-738.7 -1.9,-2.5 -4.9,-3.8 -7.8,-3.8"
         style="fill:#0e0e0e;fill-opacity:1;fill-rule:nonzero;stroke:none"
         id="path184" />
      <path
         d="m 18002.8,3219.1 c -3.3,0 -6.6,1.7 -8.5,4.7 l -1200.5,1915 -0.3,2.1 -336,2220.6 c -0.8,5.5 2.9,10.6 8.4,11.4 5.5,0.8 10.5,-3 11.4,-8.4 l 335.6,-2218.6 1198.3,-1911.5 c 3,-4.7 1.6,-10.8 -3.1,-13.8 -1.7,-1 -3.5,-1.5 -5.3,-1.5"
         style="fill:#0e0e0e;fill-opacity:1;fill-rule:nonzero;stroke:none"
         id="path186" />
      <path
         d="m 17383.4,2968.2 c -3.1,0 -6.2,1.5 -8.1,4.2 -3.3,4.5 -2.3,10.7 2.2,13.9 l 676.6,486.3 c 4.4,3.3 10.7,2.3 13.9,-2.2 3.2,-4.5 2.2,-10.8 -2.3,-14 l -676.5,-486.3 c -1.8,-1.3 -3.8,-1.9 -5.8,-1.9"
         style="fill:#0e0e0e;fill-opacity:1;fill-rule:nonzero;stroke:none"
         id="path188" />
      <path
         d="m 14457.5,2914.3 c -5.5,0 -9.9,4.4 -10,9.8 -0.1,5.5 4.4,10.1 9.9,10.2 l 769.7,9.8 c 0.1,0 0.1,0 0.2,0 5.4,0 9.9,-4.4 10,-9.9 0,-5.5 -4.4,-10 -9.9,-10.1 l -769.8,-9.8 c 0,0 0,0 -0.1,0"
         style="fill:#0e0e0e;fill-opacity:1;fill-rule:nonzero;stroke:none"
         id="path190" />
      <path
         d="m 12930.9,8184.7 c -10.3,0 -20.5,3.9 -28.3,11.7 -15.6,15.6 -15.6,40.9 0,56.5 l 593.9,593.9 c 15.6,15.6 40.9,15.6 56.5,0 15.6,-15.6 15.6,-40.9 0,-56.6 l -593.8,-593.8 c -7.8,-7.8 -18.1,-11.7 -28.3,-11.7"
         style="fill:#e0e0e0;fill-opacity:1;fill-rule:nonzero;stroke:none"
         id="path192" />
      <path
         d="m 1841.06,6408.5 c -10.23,0 -20.47,3.9 -28.28,11.7 -15.62,15.7 -15.62,41 0,56.6 l 593.86,593.9 c 15.62,15.6 40.94,15.6 56.57,0 15.62,-15.7 15.62,-41 0,-56.6 l -593.86,-593.9 c -7.81,-7.8 -18.05,-11.7 -28.29,-11.7"
         style="fill:#e0e0e0;fill-opacity:1;fill-rule:nonzero;stroke:none"
         id="path194" />
      <path
         d="m 18912,12240.3 c -95,0 -172.3,-77.4 -172.3,-172.4 0,-95 77.3,-172.3 172.3,-172.3 95,0 172.3,77.3 172.3,172.3 0,95 -77.3,172.4 -172.3,172.4 z m 0,-424.7 c -139.1,0 -252.3,113.2 -252.3,252.3 0,139.2 113.2,252.4 252.3,252.4 139.1,0 252.3,-113.2 252.3,-252.4 0,-139.1 -113.2,-252.3 -252.3,-252.3"
         style="fill:#e0e0e0;fill-opacity:1;fill-rule:nonzero;stroke:none"
         id="path196" />
      <path
         d="m 2187.99,11293.7 c -95.02,0 -172.32,-77.3 -172.32,-172.3 0,-95 77.3,-172.3 172.32,-172.3 95.02,0 172.33,77.3 172.33,172.3 0,95 -77.31,172.3 -172.33,172.3 z m 0,-424.6 c -139.13,0 -252.32,113.2 -252.32,252.3 0,139.2 113.19,252.3 252.32,252.3 139.13,0 252.33,-113.1 252.33,-252.3 0,-139.1 -113.2,-252.3 -252.33,-252.3"
         style="fill:#e0e0e0;fill-opacity:1;fill-rule:nonzero;stroke:none"
         id="path198" />
      <path
         d="m 4376.7,12722.1 c -244.9,0 -444.14,199.2 -444.14,444.1 0,22.1 17.91,40 40,40 22.09,0 40,-17.9 40,-40 0,-200.8 163.35,-364.1 364.14,-364.1 22.09,0 40,-17.9 40,-40 0,-22.1 -17.91,-40 -40,-40"
         style="fill:#e0e0e0;fill-opacity:1;fill-rule:nonzero;stroke:none"
         id="path200" />
      <path
         d="m 16323.8,12959.5 c -244.9,0 -444.1,199.2 -444.1,444.1 0,22.1 17.9,40 40,40 22.1,0 40,-17.9 40,-40 0,-200.7 163.3,-364.1 364.1,-364.1 22.1,0 40,-17.9 40,-40 0,-22.1 -17.9,-40 -40,-40"
         style="fill:#e0e0e0;fill-opacity:1;fill-rule:nonzero;stroke:none"
         id="path202" />
      <path
         d="m 7987.08,8568 c -244.9,0 -444.15,199.3 -444.15,444.2 0,22.1 17.91,40 40,40 22.09,0 40,-17.9 40,-40 0,-200.8 163.36,-364.2 364.15,-364.2 22.09,0 40,-17.9 40,-40 0,-22.1 -17.91,-40 -40,-40"
         style="fill:#e0e0e0;fill-opacity:1;fill-rule:nonzero;stroke:none"
         id="path204" />
      <path
         d="m 17908.9,6552.6 c -20.5,0 -37.9,15.6 -39.8,36.4 -2,22 14.3,41.4 36.3,43.4 l 556.8,49.8 49.8,556.9 c 1.8,19.2 17,34.5 36.3,36.2 l 556.9,49.8 49.8,556.9 c 1.7,19.3 17,34.6 36.3,36.3 l 590.2,52.8 c 22,2 41.4,-14.3 43.4,-36.3 2,-22 -14.3,-41.4 -36.3,-43.4 l -556.9,-49.8 -49.8,-556.9 c -1.7,-19.3 -17,-34.6 -36.3,-36.3 l -556.9,-49.8 -49.7,-556.9 c -1.8,-19.2 -17,-34.5 -36.3,-36.2 l -590.2,-52.8 c -1.2,-0.1 -2.4,-0.1 -3.6,-0.1"
         style="fill:#e0e0e0;fill-opacity:1;fill-rule:nonzero;stroke:none"
         id="path206" />
      <path
         d="m 10933.5,13215.6 c -20.5,0 -38,15.7 -39.8,36.5 l -49.8,556.9 -557,49.8 c -19.2,1.7 -34.5,17 -36.2,36.3 l -52.8,590.1 c -2,22 14.3,41.5 36.3,43.4 21.9,2.1 41.4,-14.2 43.4,-36.2 l 49.8,-556.9 556.9,-49.8 c 19.3,-1.8 34.5,-17 36.3,-36.3 l 52.8,-590.2 c 1.9,-22 -14.3,-41.5 -36.3,-43.4 -1.2,-0.1 -2.4,-0.2 -3.6,-0.2"
         style="fill:#e0e0e0;fill-opacity:1;fill-rule:nonzero;stroke:none"
         id="path208" />
      <path
         d="M 19652.8,2038.7 H 1347.16 c -8.28,0 -15,6.7 -15,15 0,8.2 6.72,15 15,15 H 19652.8 c 8.3,0 15,-6.8 15,-15 0,-8.3 -6.7,-15 -15,-15"
         style="fill:#0e0e0e;fill-opacity:1;fill-rule:nonzero;stroke:none"
         id="path210" />
    </g>
  </g>
</svg>
